<?xml version="1.0" encoding="iso-8859-1"?>
<!-- Generator: Adobe Illustrator 19.0.0, SVG Export Plug-In . SVG Version: 6.00 Build 0)  -->
<svg version="1.1" id="Capa_1" xmlns="http://www.w3.org/2000/svg" xmlns:xlink="http://www.w3.org/1999/xlink" x="0px" y="0px"
	 viewBox="0 0 512 512" style="enable-background:new 0 0 512 512;" xml:space="preserve">
<g>
	<g>
		<path d="M504.485,0H7.515C3.364,0,0,3.365,0,7.515v392.767c0,4.15,3.364,7.515,7.515,7.515h184.861v89.174h-16.532
			c-4.151,0-7.515,3.365-7.515,7.515c0,4.15,3.364,7.515,7.515,7.515h160.313c4.151,0,7.515-3.365,7.515-7.515
			c0-4.15-3.364-7.515-7.515-7.515h-16.532v-89.174h184.861c4.151,0,7.515-3.365,7.515-7.515V7.515C512,3.365,508.636,0,504.485,0z
			 M304.595,496.971h-97.19v-89.174h97.19V496.971z M496.971,328.642h-64.626c-4.151,0-7.515,3.365-7.515,7.515
			s3.364,7.515,7.515,7.515h64.626v49.096H15.029v-49.096H395.94c4.151,0,7.515-3.365,7.515-7.515s-3.364-7.515-7.515-7.515H15.029
			V15.029h481.941V328.642z"/>
	</g>
</g>
<g>
	<g>
		<path d="M264.016,360.704h-16.031c-4.151,0-7.515,3.365-7.515,7.515s3.364,7.515,7.515,7.515h16.031
			c4.151,0,7.515-3.365,7.515-7.515S268.167,360.704,264.016,360.704z"/>
	</g>
</g>
<g>
	<g>
		<path d="M432.344,280.548h-40.579V71.64c0-4.15-3.364-7.515-7.515-7.515h-48.094c-4.151,0-7.515,3.365-7.515,7.515v208.908
			h-25.049v-168.83c0-4.15-3.364-7.515-7.515-7.515h-48.094c-4.151,0-7.515,3.365-7.515,7.515v168.83h-25.049V143.781
			c0-4.15-3.364-7.515-7.515-7.515h-48.094c-4.151,0-7.515,3.365-7.515,7.515v136.767h-49.096V63.624
			c0-4.15-3.364-7.515-7.515-7.515s-7.515,3.365-7.515,7.515v24.548h-8.517c-4.151,0-7.515,3.365-7.515,7.515
			s3.364,7.515,7.515,7.515h8.517v49.096h-8.517c-4.151,0-7.515,3.365-7.515,7.515s3.364,7.515,7.515,7.515h8.517v49.096h-8.517
			c-4.151,0-7.515,3.365-7.515,7.515s3.364,7.515,7.515,7.515h8.517v56.611c0,4.15,3.364,7.515,7.515,7.515h336.658
			c4.151,0,7.515-3.365,7.515-7.515S436.496,280.548,432.344,280.548z M200.391,280.548h-33.065V151.295h33.065V280.548z
			 M288.564,280.548h-33.065V119.233h33.065V280.548z M376.736,280.548h-33.065V79.155h33.065V280.548z"/>
	</g>
</g>
<g>
</g>
<g>
</g>
<g>
</g>
<g>
</g>
<g>
</g>
<g>
</g>
<g>
</g>
<g>
</g>
<g>
</g>
<g>
</g>
<g>
</g>
<g>
</g>
<g>
</g>
<g>
</g>
<g>
</g>
</svg>
